<?xml version="1.0" encoding="UTF-8"?>
<svg width="64" height="64" viewBox="0 0 64 64" xmlns="http://www.w3.org/2000/svg">
  <!-- Bench by Factory.ai for Maetopia - Kid-friendly city builder -->
  
  <!-- Bench Legs -->
  <rect 
    x="12" 
    y="36" 
    width="6" 
    height="16" 
    fill="#5D4037" 
    stroke="#333333" 
    stroke-width="1.5" 
    rx="1"/>
  
  <rect 
    x="46" 
    y="36" 
    width="6" 
    height="16" 
    fill="#5D4037" 
    stroke="#333333" 
    stroke-width="1.5" 
    rx="1"/>
  
  <!-- Bench Seat -->
  <rect 
    x="8" 
    y="32" 
    width="48" 
    height="6" 
    fill="#8D6E63" 
    stroke="#333333" 
    stroke-width="1.5" 
    rx="2"/>
  
  <!-- Bench Back Support Legs -->
  <rect 
    x="12" 
    y="20" 
    width="4" 
    height="12" 
    fill="#5D4037" 
    stroke="#333333" 
    stroke-width="1.5" 
    rx="1"/>
  
  <rect 
    x="48" 
    y="20" 
    width="4" 
    height="12" 
    fill="#5D4037" 
    stroke="#333333" 
    stroke-width="1.5" 
    rx="1"/>
  
  <!-- Bench Back -->
  <rect 
    x="10" 
    y="16" 
    width="44" 
    height="6" 
    fill="#8D6E63" 
    stroke="#333333" 
    stroke-width="1.5" 
    rx="2"/>
  
  <!-- Bench Slats -->
  <rect 
    x="14" 
    y="33" 
    width="36" 
    height="1" 
    fill="#3E2723" 
    stroke-width="0"/>
  
  <rect 
    x="14" 
    y="36" 
    width="36" 
    height="1" 
    fill="#3E2723" 
    stroke-width="0"/>
  
  <rect 
    x="14" 
    y="17" 
    width="36" 
    height="1" 
    fill="#3E2723" 
    stroke-width="0"/>
  
  <rect 
    x="14" 
    y="20" 
    width="36" 
    height="1" 
    fill="#3E2723" 
    stroke-width="0"/>
  
  <!-- Decorative Elements -->
  <circle 
    cx="14" 
    y="18" 
    r="1" 
    fill="#4E342E"/>
  
  <circle 
    cx="50" 
    y="18" 
    r="1" 
    fill="#4E342E"/>
  
  <circle 
    cx="14" 
    y="34" 
    r="1" 
    fill="#4E342E"/>
  
  <circle 
    cx="50" 
    y="34" 
    r="1" 
    fill="#4E342E"/>
</svg>
