<?xml version="1.0" encoding="UTF-8"?>
<svg width="64" height="64" viewBox="0 0 64 64" xmlns="http://www.w3.org/2000/svg">
  <!-- Hospital by Factory.ai for Maetopia - Kid-friendly city builder -->
  
  <!-- Main Building -->
  <rect 
    x="10" 
    y="14" 
    width="44" 
    height="44" 
    fill="#FFFFFF" 
    stroke="#333333" 
    stroke-width="2" 
    rx="2"/>
  
  <!-- Hospital Roof -->
  <rect 
    x="8" 
    y="10" 
    width="48" 
    height="6" 
    fill="#E0E0E0" 
    stroke="#333333" 
    stroke-width="1.5"
    rx="1"/>
  
  <!-- Red Cross Symbol -->
  <rect 
    x="26" 
    y="18" 
    width="12" 
    height="30" 
    fill="#FF0000" 
    rx="2"/>
  
  <rect 
    x="17" 
    y="27" 
    width="30" 
    height="12" 
    fill="#FF0000" 
    rx="2"/>
  
  <!-- Door -->
  <rect 
    x="26" 
    y="46" 
    width="12" 
    height="12" 
    fill="#4169E1" 
    stroke="#333333" 
    stroke-width="1.5" 
    rx="1"/>
  
  <!-- Door Line -->
  <line 
    x1="32" 
    y1="46" 
    x2="32" 
    y2="58" 
    stroke="#333333" 
    stroke-width="1.5"/>
  
  <!-- Left Windows -->
  <rect 
    x="14" 
    y="20" 
    width="8" 
    height="8" 
    fill="#E3F2FD" 
    stroke="#333333" 
    stroke-width="1"/>
  
  <rect 
    x="14" 
    y="32" 
    width="8" 
    height="8" 
    fill="#E3F2FD" 
    stroke="#333333" 
    stroke-width="1"/>
  
  <!-- Right Windows -->
  <rect 
    x="42" 
    y="20" 
    width="8" 
    height="8" 
    fill="#E3F2FD" 
    stroke="#333333" 
    stroke-width="1"/>
  
  <rect 
    x="42" 
    y="32" 
    width="8" 
    height="8" 
    fill="#E3F2FD" 
    stroke="#333333" 
    stroke-width="1"/>
  
  <!-- Window Crosses -->
  <path 
    d="M18,20 L18,28 M14,24 L22,24" 
    stroke="#333333" 
    stroke-width="0.75"/>
  
  <path 
    d="M18,32 L18,40 M14,36 L22,36" 
    stroke="#333333" 
    stroke-width="0.75"/>
  
  <path 
    d="M46,20 L46,28 M42,24 L50,24" 
    stroke="#333333" 
    stroke-width="0.75"/>
  
  <path 
    d="M46,32 L46,40 M42,36 L50,36" 
    stroke="#333333" 
    stroke-width="0.75"/>
  
  <!-- Ambulance Entrance Sign -->
  <rect 
    x="20" 
    y="46" 
    width="4" 
    height="4" 
    fill="#FFC107" 
    stroke="#333333" 
    stroke-width="0.75"
    rx="0.5"/>
  
  <!-- Helipad H -->
  <rect 
    x="52" 
    y="18" 
    width="8" 
    height="8" 
    fill="#90CAF9" 
    stroke="#333333" 
    stroke-width="0.75"
    rx="1"/>
  
  <text 
    x="56" 
    y="24" 
    font-family="Arial" 
    font-size="6" 
    text-anchor="middle" 
    fill="#333333" 
    font-weight="bold">H</text>
</svg>
